<?xml version="1.0" encoding="utf-8" standalone="no"?>
<!DOCTYPE svg PUBLIC "-//W3C//DTD SVG 1.1//EN"
  "http://www.w3.org/Graphics/SVG/1.1/DTD/svg11.dtd">
<svg xmlns:xlink="http://www.w3.org/1999/xlink" width="550.873438pt" height="432.887993pt" viewBox="0 0 550.873438 432.887993" xmlns="http://www.w3.org/2000/svg" version="1.1">
 <metadata>
  <rdf:RDF xmlns:dc="http://purl.org/dc/elements/1.1/" xmlns:cc="http://creativecommons.org/ns#" xmlns:rdf="http://www.w3.org/1999/02/22-rdf-syntax-ns#">
   <cc:Work>
    <dc:type rdf:resource="http://purl.org/dc/dcmitype/StillImage"/>
    <dc:date>2026-08-07T19:56:49.234068</dc:date>
    <dc:format>image/svg+xml</dc:format>
    <dc:creator>
     <cc:Agent>
      <dc:title>Matplotlib v3.11.1, https://matplotlib.org/</dc:title>
     </cc:Agent>
    </dc:creator>
   </cc:Work>
  </rdf:RDF>
 </metadata>
 <defs>
  <style type="text/css">*{stroke-linejoin: round; stroke-linecap: butt}</style>
 </defs>
 <g id="figure_1">
  <g id="patch_1">
   <path d="M 0 432.887993 
L 550.873438 432.887993 
L 550.873438 -0 
L 0 -0 
z
" style="fill: #fcfcfb"/>
  </g>
  <g id="axes_1">
   <g id="patch_2">
    <path d="M 97.273438 367.63575 
L 543.673437 367.63575 
L 543.673437 28.08375 
L 97.273438 28.08375 
z
" style="fill: #fcfcfb"/>
   </g>
   <g id="matplotlib.axis_1">
    <g id="xtick_1">
     <g id="line2d_1">
      <path d="M 97.273438 367.63575 
L 97.273438 28.08375 
" clip-path="url(#pb41d4d799e)" style="fill: none; stroke: #e1e0d9; stroke-width: 0.8; stroke-linecap: square"/>
     </g>
     <g id="line2d_2">
      <defs>
       <path id="m8b1464efc7" d="M 0 0 
L 0 3.5 
" style="stroke: #898781; stroke-width: 0.8"/>
      </defs>
      <g>
       <use xlink:href="#m8b1464efc7" x="97.273438" y="367.63575" style="fill: #898781; stroke: #898781; stroke-width: 0.8"/>
      </g>
     </g>
     <g id="text_1">
      <!-- 0 -->
      <g style="fill: #898781" transform="translate(94.578125 381.916023) scale(0.1 -0.1)">
       <defs>
        <path id="SegoeUI-13" d="M 3188 2259 
Q 3188 1697 3086 1262 
Q 2984 828 2792 529 
Q 2600 231 2320 76 
Q 2041 -78 1684 -78 
Q 1347 -78 1083 70 
Q 819 219 637 503 
Q 456 788 362 1202 
Q 269 1616 269 2150 
Q 269 2738 367 3188 
Q 466 3638 656 3942 
Q 847 4247 1130 4401 
Q 1413 4556 1778 4556 
Q 3188 4556 3188 2259 
z
M 2663 2209 
Q 2663 4122 1753 4122 
Q 794 4122 794 2175 
Q 794 359 1734 359 
Q 2663 359 2663 2209 
z
" transform="scale(0.015625)"/>
       </defs>
       <use xlink:href="#SegoeUI-13"/>
      </g>
     </g>
    </g>
    <g id="xtick_2">
     <g id="line2d_3">
      <path d="M 157.597762 367.63575 
L 157.597762 28.08375 
" clip-path="url(#pb41d4d799e)" style="fill: none; stroke: #e1e0d9; stroke-width: 0.8; stroke-linecap: square"/>
     </g>
     <g id="line2d_4">
      <g>
       <use xlink:href="#m8b1464efc7" x="157.597762" y="367.63575" style="fill: #898781; stroke: #898781; stroke-width: 0.8"/>
      </g>
     </g>
     <g id="text_2">
      <!-- 25 -->
      <g style="fill: #898781" transform="translate(152.207137 381.916023) scale(0.1 -0.1)">
       <defs>
        <path id="SegoeUI-15" d="M 2413 3306 
Q 2413 3513 2348 3666 
Q 2284 3819 2173 3920 
Q 2063 4022 1913 4072 
Q 1763 4122 1588 4122 
Q 1438 4122 1294 4081 
Q 1150 4041 1014 3969 
Q 878 3897 751 3797 
Q 625 3697 516 3575 
L 516 4125 
Q 731 4334 998 4445 
Q 1266 4556 1650 4556 
Q 1925 4556 2159 4476 
Q 2394 4397 2566 4244 
Q 2738 4091 2836 3866 
Q 2934 3641 2934 3350 
Q 2934 3084 2873 2868 
Q 2813 2653 2689 2462 
Q 2566 2272 2378 2097 
Q 2191 1922 1938 1741 
Q 1622 1516 1417 1356 
Q 1213 1197 1092 1058 
Q 972 919 923 780 
Q 875 641 875 459 
L 3106 459 
L 3106 0 
L 341 0 
L 341 222 
Q 341 509 403 728 
Q 466 947 609 1144 
Q 753 1341 986 1537 
Q 1219 1734 1556 1981 
Q 1800 2156 1964 2315 
Q 2128 2475 2228 2634 
Q 2328 2794 2370 2958 
Q 2413 3122 2413 3306 
z
" transform="scale(0.015625)"/>
        <path id="SegoeUI-18" d="M 3028 1369 
Q 3028 1041 2915 775 
Q 2803 509 2595 318 
Q 2388 128 2094 25 
Q 1800 -78 1441 -78 
Q 816 -78 513 109 
L 513 653 
Q 969 359 1447 359 
Q 1691 359 1886 431 
Q 2081 503 2218 631 
Q 2356 759 2429 940 
Q 2503 1122 2503 1338 
Q 2503 1775 2209 2023 
Q 1916 2272 1356 2272 
Q 1266 2272 1166 2269 
Q 1066 2266 966 2261 
Q 866 2256 770 2250 
Q 675 2244 597 2234 
L 750 4481 
L 2822 4481 
L 2822 4019 
L 1194 4019 
L 1103 2703 
Q 1203 2709 1315 2714 
Q 1428 2719 1516 2719 
Q 1872 2719 2153 2625 
Q 2434 2531 2629 2357 
Q 2825 2184 2926 1932 
Q 3028 1681 3028 1369 
z
" transform="scale(0.015625)"/>
       </defs>
       <use xlink:href="#SegoeUI-15"/>
       <use xlink:href="#SegoeUI-18" transform="translate(53.90625 0)"/>
      </g>
     </g>
    </g>
    <g id="xtick_3">
     <g id="line2d_5">
      <path d="M 217.922086 367.63575 
L 217.922086 28.08375 
" clip-path="url(#pb41d4d799e)" style="fill: none; stroke: #e1e0d9; stroke-width: 0.8; stroke-linecap: square"/>
     </g>
     <g id="line2d_6">
      <g>
       <use xlink:href="#m8b1464efc7" x="217.922086" y="367.63575" style="fill: #898781; stroke: #898781; stroke-width: 0.8"/>
      </g>
     </g>
     <g id="text_3">
      <!-- 50 -->
      <g style="fill: #898781" transform="translate(212.531461 381.916023) scale(0.1 -0.1)">
       <use xlink:href="#SegoeUI-18"/>
       <use xlink:href="#SegoeUI-13" transform="translate(53.90625 0)"/>
      </g>
     </g>
    </g>
    <g id="xtick_4">
     <g id="line2d_7">
      <path d="M 278.24641 367.63575 
L 278.24641 28.08375 
" clip-path="url(#pb41d4d799e)" style="fill: none; stroke: #e1e0d9; stroke-width: 0.8; stroke-linecap: square"/>
     </g>
     <g id="line2d_8">
      <g>
       <use xlink:href="#m8b1464efc7" x="278.24641" y="367.63575" style="fill: #898781; stroke: #898781; stroke-width: 0.8"/>
      </g>
     </g>
     <g id="text_4">
      <!-- 75 -->
      <g style="fill: #898781" transform="translate(272.855785 381.916023) scale(0.1 -0.1)">
       <defs>
        <path id="SegoeUI-1a" d="M 3156 4184 
Q 3053 4006 2908 3740 
Q 2763 3475 2600 3144 
Q 2438 2813 2269 2431 
Q 2100 2050 1953 1644 
Q 1806 1238 1695 820 
Q 1584 403 1534 0 
L 984 0 
Q 1041 400 1158 817 
Q 1275 1234 1423 1636 
Q 1572 2038 1737 2409 
Q 1903 2781 2059 3093 
Q 2216 3406 2345 3645 
Q 2475 3884 2553 4019 
L 306 4019 
L 306 4481 
L 3156 4481 
L 3156 4184 
z
" transform="scale(0.015625)"/>
       </defs>
       <use xlink:href="#SegoeUI-1a"/>
       <use xlink:href="#SegoeUI-18" transform="translate(53.90625 0)"/>
      </g>
     </g>
    </g>
    <g id="xtick_5">
     <g id="line2d_9">
      <path d="M 338.570735 367.63575 
L 338.570735 28.08375 
" clip-path="url(#pb41d4d799e)" style="fill: none; stroke: #e1e0d9; stroke-width: 0.8; stroke-linecap: square"/>
     </g>
     <g id="line2d_10">
      <g>
       <use xlink:href="#m8b1464efc7" x="338.570735" y="367.63575" style="fill: #898781; stroke: #898781; stroke-width: 0.8"/>
      </g>
     </g>
     <g id="text_5">
      <!-- 100 -->
      <g style="fill: #898781" transform="translate(330.484797 381.916023) scale(0.1 -0.1)">
       <defs>
        <path id="SegoeUI-14" d="M 2263 0 
L 1750 0 
L 1750 3872 
Q 1691 3813 1577 3736 
Q 1463 3659 1320 3584 
Q 1178 3509 1020 3443 
Q 863 3378 713 3341 
L 713 3859 
Q 881 3906 1070 3986 
Q 1259 4066 1442 4164 
Q 1625 4263 1787 4370 
Q 1950 4478 2069 4581 
L 2263 4581 
L 2263 0 
z
" transform="scale(0.015625)"/>
       </defs>
       <use xlink:href="#SegoeUI-14"/>
       <use xlink:href="#SegoeUI-13" transform="translate(53.90625 0)"/>
       <use xlink:href="#SegoeUI-13" transform="translate(107.8125 0)"/>
      </g>
     </g>
    </g>
    <g id="xtick_6">
     <g id="line2d_11">
      <path d="M 398.895059 367.63575 
L 398.895059 28.08375 
" clip-path="url(#pb41d4d799e)" style="fill: none; stroke: #e1e0d9; stroke-width: 0.8; stroke-linecap: square"/>
     </g>
     <g id="line2d_12">
      <g>
       <use xlink:href="#m8b1464efc7" x="398.895059" y="367.63575" style="fill: #898781; stroke: #898781; stroke-width: 0.8"/>
      </g>
     </g>
     <g id="text_6">
      <!-- 125 -->
      <g style="fill: #898781" transform="translate(390.809122 381.916023) scale(0.1 -0.1)">
       <use xlink:href="#SegoeUI-14"/>
       <use xlink:href="#SegoeUI-15" transform="translate(53.90625 0)"/>
       <use xlink:href="#SegoeUI-18" transform="translate(107.8125 0)"/>
      </g>
     </g>
    </g>
    <g id="xtick_7">
     <g id="line2d_13">
      <path d="M 459.219383 367.63575 
L 459.219383 28.08375 
" clip-path="url(#pb41d4d799e)" style="fill: none; stroke: #e1e0d9; stroke-width: 0.8; stroke-linecap: square"/>
     </g>
     <g id="line2d_14">
      <g>
       <use xlink:href="#m8b1464efc7" x="459.219383" y="367.63575" style="fill: #898781; stroke: #898781; stroke-width: 0.8"/>
      </g>
     </g>
     <g id="text_7">
      <!-- 150 -->
      <g style="fill: #898781" transform="translate(451.133446 381.916023) scale(0.1 -0.1)">
       <use xlink:href="#SegoeUI-14"/>
       <use xlink:href="#SegoeUI-18" transform="translate(53.90625 0)"/>
       <use xlink:href="#SegoeUI-13" transform="translate(107.8125 0)"/>
      </g>
     </g>
    </g>
    <g id="xtick_8">
     <g id="line2d_15">
      <path d="M 519.543708 367.63575 
L 519.543708 28.08375 
" clip-path="url(#pb41d4d799e)" style="fill: none; stroke: #e1e0d9; stroke-width: 0.8; stroke-linecap: square"/>
     </g>
     <g id="line2d_16">
      <g>
       <use xlink:href="#m8b1464efc7" x="519.543708" y="367.63575" style="fill: #898781; stroke: #898781; stroke-width: 0.8"/>
      </g>
     </g>
     <g id="text_8">
      <!-- 175 -->
      <g style="fill: #898781" transform="translate(511.45777 381.916023) scale(0.1 -0.1)">
       <use xlink:href="#SegoeUI-14"/>
       <use xlink:href="#SegoeUI-1a" transform="translate(53.90625 0)"/>
       <use xlink:href="#SegoeUI-18" transform="translate(107.8125 0)"/>
      </g>
     </g>
    </g>
    <g id="text_9">
     <!-- Number of records -->
     <g style="fill: #52514e" transform="translate(278.672656 401.529891) scale(0.1 -0.1)">
      <defs>
       <path id="SegoeUI-31" d="M 4200 0 
L 3556 0 
L 1250 3572 
Q 1163 3706 1106 3853 
L 1088 3853 
Q 1113 3709 1113 3238 
L 1113 0 
L 588 0 
L 588 4481 
L 1269 4481 
L 3513 966 
Q 3653 747 3694 666 
L 3706 666 
Q 3675 859 3675 1325 
L 3675 4481 
L 4200 4481 
L 4200 0 
z
" transform="scale(0.015625)"/>
       <path id="SegoeUI-58" d="M 3106 0 
L 2594 0 
L 2594 506 
L 2581 506 
Q 2263 -75 1594 -75 
Q 450 -75 450 1288 
L 450 3200 
L 959 3200 
L 959 1369 
Q 959 356 1734 356 
Q 2109 356 2351 632 
Q 2594 909 2594 1356 
L 2594 3200 
L 3106 3200 
L 3106 0 
z
" transform="scale(0.015625)"/>
       <path id="SegoeUI-50" d="M 5063 0 
L 4550 0 
L 4550 1838 
Q 4550 2369 4386 2606 
Q 4222 2844 3834 2844 
Q 3506 2844 3276 2544 
Q 3047 2244 3047 1825 
L 3047 0 
L 2534 0 
L 2534 1900 
Q 2534 2844 1806 2844 
Q 1469 2844 1250 2561 
Q 1031 2278 1031 1825 
L 1031 0 
L 519 0 
L 519 3200 
L 1031 3200 
L 1031 2694 
L 1044 2694 
Q 1384 3275 2038 3275 
Q 2366 3275 2609 3092 
Q 2853 2909 2944 2613 
Q 3300 3275 4006 3275 
Q 5063 3275 5063 1972 
L 5063 0 
z
" transform="scale(0.015625)"/>
       <path id="SegoeUI-45" d="M 1044 463 
L 1031 463 
L 1031 0 
L 519 0 
L 519 4738 
L 1031 4738 
L 1031 2638 
L 1044 2638 
Q 1422 3275 2150 3275 
Q 2766 3275 3114 2845 
Q 3463 2416 3463 1694 
Q 3463 891 3072 408 
Q 2681 -75 2003 -75 
Q 1369 -75 1044 463 
z
M 1031 1753 
L 1031 1306 
Q 1031 909 1289 632 
Q 1547 356 1944 356 
Q 2409 356 2673 712 
Q 2938 1069 2938 1703 
Q 2938 2238 2691 2541 
Q 2444 2844 2022 2844 
Q 1575 2844 1303 2533 
Q 1031 2222 1031 1753 
z
" transform="scale(0.015625)"/>
       <path id="SegoeUI-48" d="M 3091 1472 
L 831 1472 
Q 844 938 1119 647 
Q 1394 356 1875 356 
Q 2416 356 2869 713 
L 2869 231 
Q 2447 -75 1753 -75 
Q 1075 -75 687 361 
Q 300 797 300 1588 
Q 300 2334 723 2804 
Q 1147 3275 1775 3275 
Q 2403 3275 2747 2869 
Q 3091 2463 3091 1741 
L 3091 1472 
z
M 2566 1906 
Q 2563 2350 2352 2597 
Q 2141 2844 1766 2844 
Q 1403 2844 1150 2584 
Q 897 2325 838 1906 
L 2566 1906 
z
" transform="scale(0.015625)"/>
       <path id="SegoeUI-55" d="M 2188 2681 
Q 2053 2784 1800 2784 
Q 1472 2784 1251 2475 
Q 1031 2166 1031 1631 
L 1031 0 
L 519 0 
L 519 3200 
L 1031 3200 
L 1031 2541 
L 1044 2541 
Q 1153 2878 1378 3067 
Q 1603 3256 1881 3256 
Q 2081 3256 2188 3213 
L 2188 2681 
z
" transform="scale(0.015625)"/>
       <path id="SegoeUI-3" transform="scale(0.015625)"/>
       <path id="SegoeUI-52" d="M 1856 -75 
Q 1147 -75 723 373 
Q 300 822 300 1563 
Q 300 2369 740 2822 
Q 1181 3275 1931 3275 
Q 2647 3275 3048 2834 
Q 3450 2394 3450 1613 
Q 3450 847 3017 386 
Q 2584 -75 1856 -75 
z
M 1894 2844 
Q 1400 2844 1112 2508 
Q 825 2172 825 1581 
Q 825 1013 1115 684 
Q 1406 356 1894 356 
Q 2391 356 2658 678 
Q 2925 1000 2925 1594 
Q 2925 2194 2658 2519 
Q 2391 2844 1894 2844 
z
" transform="scale(0.015625)"/>
       <path id="SegoeUI-49" d="M 2100 4288 
Q 1950 4372 1759 4372 
Q 1222 4372 1222 3694 
L 1222 3200 
L 1972 3200 
L 1972 2763 
L 1222 2763 
L 1222 0 
L 713 0 
L 713 2763 
L 166 2763 
L 166 3200 
L 713 3200 
L 713 3719 
Q 713 4222 1003 4514 
Q 1294 4806 1728 4806 
Q 1963 4806 2100 4750 
L 2100 4288 
z
" transform="scale(0.015625)"/>
       <path id="SegoeUI-46" d="M 2700 147 
Q 2331 -75 1825 -75 
Q 1141 -75 720 370 
Q 300 816 300 1525 
Q 300 2316 753 2795 
Q 1206 3275 1963 3275 
Q 2384 3275 2706 3119 
L 2706 2594 
Q 2350 2844 1944 2844 
Q 1453 2844 1139 2492 
Q 825 2141 825 1569 
Q 825 1006 1120 681 
Q 1416 356 1913 356 
Q 2331 356 2700 634 
L 2700 147 
z
" transform="scale(0.015625)"/>
       <path id="SegoeUI-47" d="M 3250 0 
L 2738 0 
L 2738 544 
L 2725 544 
Q 2369 -75 1625 -75 
Q 1022 -75 661 354 
Q 300 784 300 1525 
Q 300 2319 700 2797 
Q 1100 3275 1766 3275 
Q 2425 3275 2725 2756 
L 2738 2756 
L 2738 4738 
L 3250 4738 
L 3250 0 
z
M 2738 1447 
L 2738 1919 
Q 2738 2306 2481 2575 
Q 2225 2844 1831 2844 
Q 1363 2844 1094 2500 
Q 825 2156 825 1550 
Q 825 997 1083 676 
Q 1341 356 1775 356 
Q 2203 356 2470 665 
Q 2738 975 2738 1447 
z
" transform="scale(0.015625)"/>
       <path id="SegoeUI-56" d="M 325 116 
L 325 666 
Q 744 356 1247 356 
Q 1922 356 1922 806 
Q 1922 934 1864 1023 
Q 1806 1113 1707 1181 
Q 1609 1250 1476 1304 
Q 1344 1359 1191 1419 
Q 978 1503 817 1589 
Q 656 1675 548 1783 
Q 441 1891 386 2028 
Q 331 2166 331 2350 
Q 331 2575 434 2748 
Q 538 2922 709 3039 
Q 881 3156 1101 3215 
Q 1322 3275 1556 3275 
Q 1972 3275 2300 3131 
L 2300 2613 
Q 1947 2844 1488 2844 
Q 1344 2844 1228 2811 
Q 1113 2778 1030 2718 
Q 947 2659 901 2576 
Q 856 2494 856 2394 
Q 856 2269 901 2184 
Q 947 2100 1034 2034 
Q 1122 1969 1247 1916 
Q 1372 1863 1531 1800 
Q 1744 1719 1912 1633 
Q 2081 1547 2200 1439 
Q 2319 1331 2383 1190 
Q 2447 1050 2447 856 
Q 2447 619 2342 444 
Q 2238 269 2063 153 
Q 1888 38 1659 -18 
Q 1431 -75 1181 -75 
Q 688 -75 325 116 
z
" transform="scale(0.015625)"/>
      </defs>
      <use xlink:href="#SegoeUI-31"/>
      <use xlink:href="#SegoeUI-58" transform="translate(74.8125 0)"/>
      <use xlink:href="#SegoeUI-50" transform="translate(131.40625 0)"/>
      <use xlink:href="#SegoeUI-45" transform="translate(217.546875 0)"/>
      <use xlink:href="#SegoeUI-48" transform="translate(276.34375 0)"/>
      <use xlink:href="#SegoeUI-55" transform="translate(328.640625 0)"/>
      <use xlink:href="#SegoeUI-3" transform="translate(363.40625 0)"/>
      <use xlink:href="#SegoeUI-52" transform="translate(390.796875 0)"/>
      <use xlink:href="#SegoeUI-49" transform="translate(449.390625 0)"/>
      <use xlink:href="#SegoeUI-3" transform="translate(480.6875 0)"/>
      <use xlink:href="#SegoeUI-55" transform="translate(508.078125 0)"/>
      <use xlink:href="#SegoeUI-48" transform="translate(542.84375 0)"/>
      <use xlink:href="#SegoeUI-46" transform="translate(595.140625 0)"/>
      <use xlink:href="#SegoeUI-52" transform="translate(641.328125 0)"/>
      <use xlink:href="#SegoeUI-55" transform="translate(699.921875 0)"/>
      <use xlink:href="#SegoeUI-47" transform="translate(734.6875 0)"/>
      <use xlink:href="#SegoeUI-56" transform="translate(793.578125 0)"/>
     </g>
    </g>
   </g>
   <g id="matplotlib.axis_2">
    <g id="ytick_1">
     <g id="text_10">
      <!-- ipc_bns_mapping -->
      <g style="fill: #898781" transform="translate(13.839062 345.135097) scale(0.1 -0.1)">
       <defs>
        <path id="SegoeUI-4c" d="M 781 4013 
Q 644 4013 547 4106 
Q 450 4200 450 4344 
Q 450 4488 547 4583 
Q 644 4678 781 4678 
Q 922 4678 1020 4583 
Q 1119 4488 1119 4344 
Q 1119 4206 1020 4109 
Q 922 4013 781 4013 
z
M 1031 0 
L 519 0 
L 519 3200 
L 1031 3200 
L 1031 0 
z
" transform="scale(0.015625)"/>
        <path id="SegoeUI-53" d="M 1044 463 
L 1031 463 
L 1031 -1472 
L 519 -1472 
L 519 3200 
L 1031 3200 
L 1031 2638 
L 1044 2638 
Q 1422 3275 2150 3275 
Q 2769 3275 3116 2845 
Q 3463 2416 3463 1694 
Q 3463 891 3072 408 
Q 2681 -75 2003 -75 
Q 1381 -75 1044 463 
z
M 1031 1753 
L 1031 1306 
Q 1031 909 1289 632 
Q 1547 356 1944 356 
Q 2409 356 2673 712 
Q 2938 1069 2938 1703 
Q 2938 2238 2691 2541 
Q 2444 2844 2022 2844 
Q 1575 2844 1303 2533 
Q 1031 2222 1031 1753 
z
" transform="scale(0.015625)"/>
        <path id="SegoeUI-42" d="M 2656 -928 
L 0 -928 
L 0 -556 
L 2656 -556 
L 2656 -928 
z
" transform="scale(0.015625)"/>
        <path id="SegoeUI-51" d="M 3175 0 
L 2663 0 
L 2663 1825 
Q 2663 2844 1919 2844 
Q 1534 2844 1282 2555 
Q 1031 2266 1031 1825 
L 1031 0 
L 519 0 
L 519 3200 
L 1031 3200 
L 1031 2669 
L 1044 2669 
Q 1406 3275 2094 3275 
Q 2619 3275 2897 2936 
Q 3175 2597 3175 1956 
L 3175 0 
z
" transform="scale(0.015625)"/>
        <path id="SegoeUI-44" d="M 2809 0 
L 2297 0 
L 2297 500 
L 2284 500 
Q 1950 -75 1300 -75 
Q 822 -75 551 178 
Q 281 431 281 850 
Q 281 1747 1338 1894 
L 2297 2028 
Q 2297 2844 1638 2844 
Q 1059 2844 594 2450 
L 594 2975 
Q 1066 3275 1681 3275 
Q 2809 3275 2809 2081 
L 2809 0 
z
M 2297 1619 
L 1525 1513 
Q 1169 1463 987 1336 
Q 806 1209 806 888 
Q 806 653 973 504 
Q 1141 356 1419 356 
Q 1800 356 2048 623 
Q 2297 891 2297 1300 
L 2297 1619 
z
" transform="scale(0.015625)"/>
        <path id="SegoeUI-4a" d="M 3250 256 
Q 3250 -1506 1563 -1506 
Q 969 -1506 525 -1281 
L 525 -769 
Q 1066 -1069 1556 -1069 
Q 2738 -1069 2738 188 
L 2738 538 
L 2725 538 
Q 2359 -75 1625 -75 
Q 1028 -75 664 351 
Q 300 778 300 1497 
Q 300 2313 692 2794 
Q 1084 3275 1766 3275 
Q 2413 3275 2725 2756 
L 2738 2756 
L 2738 3200 
L 3250 3200 
L 3250 256 
z
M 2738 1447 
L 2738 1919 
Q 2738 2300 2480 2572 
Q 2222 2844 1838 2844 
Q 1363 2844 1094 2498 
Q 825 2153 825 1531 
Q 825 997 1083 676 
Q 1341 356 1766 356 
Q 2197 356 2467 662 
Q 2738 969 2738 1447 
z
" transform="scale(0.015625)"/>
       </defs>
       <use xlink:href="#SegoeUI-4c"/>
       <use xlink:href="#SegoeUI-53" transform="translate(24.21875 0)"/>
       <use xlink:href="#SegoeUI-46" transform="translate(83.015625 0)"/>
       <use xlink:href="#SegoeUI-42" transform="translate(129.203125 0)"/>
       <use xlink:href="#SegoeUI-45" transform="translate(170.703125 0)"/>
       <use xlink:href="#SegoeUI-51" transform="translate(229.5 0)"/>
       <use xlink:href="#SegoeUI-56" transform="translate(286.09375 0)"/>
       <use xlink:href="#SegoeUI-42" transform="translate(328.53125 0)"/>
       <use xlink:href="#SegoeUI-50" transform="translate(370.03125 0)"/>
       <use xlink:href="#SegoeUI-44" transform="translate(456.171875 0)"/>
       <use xlink:href="#SegoeUI-53" transform="translate(507.046875 0)"/>
       <use xlink:href="#SegoeUI-53" transform="translate(565.84375 0)"/>
       <use xlink:href="#SegoeUI-4c" transform="translate(624.640625 0)"/>
       <use xlink:href="#SegoeUI-51" transform="translate(648.859375 0)"/>
       <use xlink:href="#SegoeUI-4a" transform="translate(705.453125 0)"/>
      </g>
     </g>
    </g>
    <g id="ytick_2">
     <g id="text_11">
      <!-- retrieval -->
      <g style="fill: #898781" transform="translate(54.75 309.241651) scale(0.1 -0.1)">
       <defs>
        <path id="SegoeUI-57" d="M 2003 31 
Q 1822 -69 1525 -69 
Q 684 -69 684 869 
L 684 2763 
L 134 2763 
L 134 3200 
L 684 3200 
L 684 3981 
L 1197 4147 
L 1197 3200 
L 2003 3200 
L 2003 2763 
L 1197 2763 
L 1197 959 
Q 1197 638 1306 500 
Q 1416 363 1669 363 
Q 1863 363 2003 469 
L 2003 31 
z
" transform="scale(0.015625)"/>
        <path id="SegoeUI-59" d="M 3034 3200 
L 1759 0 
L 1256 0 
L 44 3200 
L 606 3200 
L 1419 875 
Q 1509 619 1531 428 
L 1544 428 
Q 1575 669 1644 863 
L 2494 3200 
L 3034 3200 
z
" transform="scale(0.015625)"/>
        <path id="SegoeUI-4f" d="M 1031 0 
L 519 0 
L 519 4738 
L 1031 4738 
L 1031 0 
z
" transform="scale(0.015625)"/>
       </defs>
       <use xlink:href="#SegoeUI-55"/>
       <use xlink:href="#SegoeUI-48" transform="translate(34.765625 0)"/>
       <use xlink:href="#SegoeUI-57" transform="translate(87.0625 0)"/>
       <use xlink:href="#SegoeUI-55" transform="translate(120.953125 0)"/>
       <use xlink:href="#SegoeUI-4c" transform="translate(155.71875 0)"/>
       <use xlink:href="#SegoeUI-48" transform="translate(179.9375 0)"/>
       <use xlink:href="#SegoeUI-59" transform="translate(232.234375 0)"/>
       <use xlink:href="#SegoeUI-44" transform="translate(280.140625 0)"/>
       <use xlink:href="#SegoeUI-4f" transform="translate(331.015625 0)"/>
      </g>
     </g>
    </g>
    <g id="ytick_3">
     <g id="text_12">
      <!-- document_analysis -->
      <g style="fill: #898781" transform="translate(7.2 273.348205) scale(0.1 -0.1)">
       <defs>
        <path id="SegoeUI-5c" d="M 3066 3200 
L 1594 -513 
Q 1200 -1506 488 -1506 
Q 288 -1506 153 -1466 
L 153 -1006 
Q 319 -1063 456 -1063 
Q 844 -1063 1038 -600 
L 1294 6 
L 44 3200 
L 613 3200 
L 1478 738 
Q 1494 691 1544 494 
L 1563 494 
Q 1578 569 1625 731 
L 2534 3200 
L 3066 3200 
z
" transform="scale(0.015625)"/>
       </defs>
       <use xlink:href="#SegoeUI-47"/>
       <use xlink:href="#SegoeUI-52" transform="translate(58.890625 0)"/>
       <use xlink:href="#SegoeUI-46" transform="translate(117.484375 0)"/>
       <use xlink:href="#SegoeUI-58" transform="translate(163.671875 0)"/>
       <use xlink:href="#SegoeUI-50" transform="translate(220.265625 0)"/>
       <use xlink:href="#SegoeUI-48" transform="translate(306.40625 0)"/>
       <use xlink:href="#SegoeUI-51" transform="translate(358.703125 0)"/>
       <use xlink:href="#SegoeUI-57" transform="translate(415.296875 0)"/>
       <use xlink:href="#SegoeUI-42" transform="translate(449.1875 0)"/>
       <use xlink:href="#SegoeUI-44" transform="translate(490.6875 0)"/>
       <use xlink:href="#SegoeUI-51" transform="translate(541.5625 0)"/>
       <use xlink:href="#SegoeUI-44" transform="translate(598.15625 0)"/>
       <use xlink:href="#SegoeUI-4f" transform="translate(649.03125 0)"/>
       <use xlink:href="#SegoeUI-5c" transform="translate(673.25 0)"/>
       <use xlink:href="#SegoeUI-56" transform="translate(721.640625 0)"/>
       <use xlink:href="#SegoeUI-4c" transform="translate(764.078125 0)"/>
       <use xlink:href="#SegoeUI-56" transform="translate(788.296875 0)"/>
      </g>
     </g>
    </g>
    <g id="ytick_4">
     <g id="text_13">
      <!-- legal_qa -->
      <g style="fill: #898781" transform="translate(54.096875 237.454759) scale(0.1 -0.1)">
       <defs>
        <path id="SegoeUI-54" d="M 3250 -1472 
L 2738 -1472 
L 2738 550 
L 2725 550 
Q 2391 -75 1631 -75 
Q 1028 -75 664 354 
Q 300 784 300 1525 
Q 300 2322 700 2798 
Q 1100 3275 1775 3275 
Q 2431 3275 2725 2756 
L 2738 2756 
L 2738 3200 
L 3250 3200 
L 3250 -1472 
z
M 2738 1441 
L 2738 1906 
Q 2738 2300 2480 2572 
Q 2222 2844 1825 2844 
Q 1363 2844 1094 2501 
Q 825 2159 825 1538 
Q 825 984 1084 670 
Q 1344 356 1753 356 
Q 2203 356 2470 664 
Q 2738 972 2738 1441 
z
" transform="scale(0.015625)"/>
       </defs>
       <use xlink:href="#SegoeUI-4f"/>
       <use xlink:href="#SegoeUI-48" transform="translate(24.21875 0)"/>
       <use xlink:href="#SegoeUI-4a" transform="translate(76.515625 0)"/>
       <use xlink:href="#SegoeUI-44" transform="translate(135.40625 0)"/>
       <use xlink:href="#SegoeUI-4f" transform="translate(186.28125 0)"/>
       <use xlink:href="#SegoeUI-42" transform="translate(210.5 0)"/>
       <use xlink:href="#SegoeUI-54" transform="translate(252 0)"/>
       <use xlink:href="#SegoeUI-44" transform="translate(310.890625 0)"/>
      </g>
     </g>
    </g>
    <g id="ytick_5">
     <g id="text_14">
      <!-- end_to_end -->
      <g style="fill: #898781" transform="translate(39.16875 201.561312) scale(0.1 -0.1)">
       <use xlink:href="#SegoeUI-48"/>
       <use xlink:href="#SegoeUI-51" transform="translate(52.296875 0)"/>
       <use xlink:href="#SegoeUI-47" transform="translate(108.890625 0)"/>
       <use xlink:href="#SegoeUI-42" transform="translate(167.78125 0)"/>
       <use xlink:href="#SegoeUI-57" transform="translate(209.28125 0)"/>
       <use xlink:href="#SegoeUI-52" transform="translate(243.171875 0)"/>
       <use xlink:href="#SegoeUI-42" transform="translate(301.765625 0)"/>
       <use xlink:href="#SegoeUI-48" transform="translate(343.265625 0)"/>
       <use xlink:href="#SegoeUI-51" transform="translate(395.5625 0)"/>
       <use xlink:href="#SegoeUI-47" transform="translate(452.15625 0)"/>
      </g>
     </g>
    </g>
    <g id="ytick_6">
     <g id="text_15">
      <!-- translation -->
      <g style="fill: #898781" transform="translate(43.578125 165.667866) scale(0.1 -0.1)">
       <use xlink:href="#SegoeUI-57"/>
       <use xlink:href="#SegoeUI-55" transform="translate(33.890625 0)"/>
       <use xlink:href="#SegoeUI-44" transform="translate(68.65625 0)"/>
       <use xlink:href="#SegoeUI-51" transform="translate(119.53125 0)"/>
       <use xlink:href="#SegoeUI-56" transform="translate(176.125 0)"/>
       <use xlink:href="#SegoeUI-4f" transform="translate(218.5625 0)"/>
       <use xlink:href="#SegoeUI-44" transform="translate(242.78125 0)"/>
       <use xlink:href="#SegoeUI-57" transform="translate(293.65625 0)"/>
       <use xlink:href="#SegoeUI-4c" transform="translate(327.546875 0)"/>
       <use xlink:href="#SegoeUI-52" transform="translate(351.765625 0)"/>
       <use xlink:href="#SegoeUI-51" transform="translate(410.359375 0)"/>
      </g>
     </g>
    </g>
    <g id="ytick_7">
     <g id="text_16">
      <!-- multilingual -->
      <g style="fill: #898781" transform="translate(38.20625 129.77442) scale(0.1 -0.1)">
       <use xlink:href="#SegoeUI-50"/>
       <use xlink:href="#SegoeUI-58" transform="translate(86.140625 0)"/>
       <use xlink:href="#SegoeUI-4f" transform="translate(142.734375 0)"/>
       <use xlink:href="#SegoeUI-57" transform="translate(166.953125 0)"/>
       <use xlink:href="#SegoeUI-4c" transform="translate(200.84375 0)"/>
       <use xlink:href="#SegoeUI-4f" transform="translate(225.0625 0)"/>
       <use xlink:href="#SegoeUI-4c" transform="translate(249.28125 0)"/>
       <use xlink:href="#SegoeUI-51" transform="translate(273.5 0)"/>
       <use xlink:href="#SegoeUI-4a" transform="translate(330.09375 0)"/>
       <use xlink:href="#SegoeUI-58" transform="translate(388.984375 0)"/>
       <use xlink:href="#SegoeUI-44" transform="translate(445.578125 0)"/>
       <use xlink:href="#SegoeUI-4f" transform="translate(496.453125 0)"/>
      </g>
     </g>
    </g>
    <g id="ytick_8">
     <g id="text_17">
      <!-- robustness -->
      <g style="fill: #898781" transform="translate(42.389062 93.880974) scale(0.1 -0.1)">
       <use xlink:href="#SegoeUI-55"/>
       <use xlink:href="#SegoeUI-52" transform="translate(34.765625 0)"/>
       <use xlink:href="#SegoeUI-45" transform="translate(93.359375 0)"/>
       <use xlink:href="#SegoeUI-58" transform="translate(152.15625 0)"/>
       <use xlink:href="#SegoeUI-56" transform="translate(208.75 0)"/>
       <use xlink:href="#SegoeUI-57" transform="translate(251.1875 0)"/>
       <use xlink:href="#SegoeUI-51" transform="translate(285.078125 0)"/>
       <use xlink:href="#SegoeUI-48" transform="translate(341.671875 0)"/>
       <use xlink:href="#SegoeUI-56" transform="translate(393.96875 0)"/>
       <use xlink:href="#SegoeUI-56" transform="translate(436.40625 0)"/>
      </g>
     </g>
    </g>
    <g id="ytick_9">
     <g id="text_18">
      <!-- research -->
      <g style="fill: #898781" transform="translate(53.251562 57.987528) scale(0.1 -0.1)">
       <defs>
        <path id="SegoeUI-4b" d="M 3175 0 
L 2663 0 
L 2663 1844 
Q 2663 2844 1919 2844 
Q 1544 2844 1287 2555 
Q 1031 2266 1031 1813 
L 1031 0 
L 519 0 
L 519 4738 
L 1031 4738 
L 1031 2669 
L 1044 2669 
Q 1413 3275 2094 3275 
Q 3175 3275 3175 1972 
L 3175 0 
z
" transform="scale(0.015625)"/>
       </defs>
       <use xlink:href="#SegoeUI-55"/>
       <use xlink:href="#SegoeUI-48" transform="translate(34.765625 0)"/>
       <use xlink:href="#SegoeUI-56" transform="translate(87.0625 0)"/>
       <use xlink:href="#SegoeUI-48" transform="translate(129.5 0)"/>
       <use xlink:href="#SegoeUI-44" transform="translate(181.796875 0)"/>
       <use xlink:href="#SegoeUI-55" transform="translate(232.671875 0)"/>
       <use xlink:href="#SegoeUI-46" transform="translate(267.4375 0)"/>
       <use xlink:href="#SegoeUI-4b" transform="translate(313.625 0)"/>
      </g>
     </g>
    </g>
   </g>
   <g id="patch_3">
    <path d="M 97.273438 367.63575 
L 543.673438 367.63575 
" style="fill: none; stroke: #c3c2b7; stroke-width: 0.8; stroke-linejoin: miter; stroke-linecap: square"/>
   </g>
   <g id="patch_4">
    <path d="M 97.273438 352.201568 
L 543.673438 352.201568 
L 543.673438 330.665501 
L 97.273438 330.665501 
z
" clip-path="url(#pb41d4d799e)" style="fill: #2a78d6"/>
   </g>
   <g id="patch_5">
    <path d="M 97.273438 316.308122 
L 208.270194 316.308122 
L 208.270194 294.772054 
L 97.273438 294.772054 
z
" clip-path="url(#pb41d4d799e)" style="fill: #2a78d6"/>
   </g>
   <g id="patch_6">
    <path d="M 97.273438 280.414676 
L 99.68641 280.414676 
L 99.68641 258.878608 
L 97.273438 258.878608 
z
" clip-path="url(#pb41d4d799e)" style="fill: #2a78d6"/>
   </g>
   <g id="patch_7">
    <path d="M 97.273438 244.52123 
L 116.577221 244.52123 
L 116.577221 222.985162 
L 97.273438 222.985162 
z
" clip-path="url(#pb41d4d799e)" style="fill: #2a78d6"/>
   </g>
   <g id="patch_8">
    <path d="M 97.273438 208.627784 
L 102.099383 208.627784 
L 102.099383 187.091716 
L 97.273438 187.091716 
z
" clip-path="url(#pb41d4d799e)" style="fill: #2a78d6"/>
   </g>
   <g id="patch_9">
    <path d="M 97.273438 172.734338 
L 126.229113 172.734338 
L 126.229113 151.19827 
L 97.273438 151.19827 
z
" clip-path="url(#pb41d4d799e)" style="fill: #2a78d6"/>
   </g>
   <g id="patch_10">
    <path d="M 97.273438 136.840892 
L 126.229113 136.840892 
L 126.229113 115.304824 
L 97.273438 115.304824 
z
" clip-path="url(#pb41d4d799e)" style="fill: #2a78d6"/>
   </g>
   <g id="patch_11">
    <path d="M 97.273438 100.947446 
L 116.577221 100.947446 
L 116.577221 79.411378 
L 97.273438 79.411378 
z
" clip-path="url(#pb41d4d799e)" style="fill: #2a78d6"/>
   </g>
   <g id="patch_12">
    <path d="M 97.273438 65.053999 
L 140.706951 65.053999 
L 140.706951 43.517932 
L 97.273438 43.517932 
z
" clip-path="url(#pb41d4d799e)" style="fill: #2a78d6"/>
   </g>
   <g id="patch_13">
    <path d="M 543.673438 352.201568 
L 543.673438 352.201568 
L 543.673438 330.665501 
L 543.673438 330.665501 
z
" clip-path="url(#pb41d4d799e)" style="fill: #eb6834"/>
   </g>
   <g id="patch_14">
    <path d="M 208.270194 316.308122 
L 208.270194 316.308122 
L 208.270194 294.772054 
L 208.270194 294.772054 
z
" clip-path="url(#pb41d4d799e)" style="fill: #eb6834"/>
   </g>
   <g id="patch_15">
    <path d="M 99.68641 280.414676 
L 314.441005 280.414676 
L 314.441005 258.878608 
L 99.68641 258.878608 
z
" clip-path="url(#pb41d4d799e)" style="fill: #eb6834"/>
   </g>
   <g id="patch_16">
    <path d="M 116.577221 244.52123 
L 258.942627 244.52123 
L 258.942627 222.985162 
L 116.577221 222.985162 
z
" clip-path="url(#pb41d4d799e)" style="fill: #eb6834"/>
   </g>
   <g id="patch_17">
    <path d="M 102.099383 208.627784 
L 123.81614 208.627784 
L 123.81614 187.091716 
L 102.099383 187.091716 
z
" clip-path="url(#pb41d4d799e)" style="fill: #eb6834"/>
   </g>
   <g id="patch_18">
    <path d="M 126.229113 172.734338 
L 126.229113 172.734338 
L 126.229113 151.19827 
L 126.229113 151.19827 
z
" clip-path="url(#pb41d4d799e)" style="fill: #eb6834"/>
   </g>
   <g id="patch_19">
    <path d="M 126.229113 136.840892 
L 126.229113 136.840892 
L 126.229113 115.304824 
L 126.229113 115.304824 
z
" clip-path="url(#pb41d4d799e)" style="fill: #eb6834"/>
   </g>
   <g id="patch_20">
    <path d="M 116.577221 100.947446 
L 123.81614 100.947446 
L 123.81614 79.411378 
L 116.577221 79.411378 
z
" clip-path="url(#pb41d4d799e)" style="fill: #eb6834"/>
   </g>
   <g id="patch_21">
    <path d="M 140.706951 65.053999 
L 201.031275 65.053999 
L 201.031275 43.517932 
L 140.706951 43.517932 
z
" clip-path="url(#pb41d4d799e)" style="fill: #eb6834"/>
   </g>
   <g id="text_19">
    <!-- NSLB v1.0 — Dataset Composition by Source Phase -->
    <g style="fill: #0b0b0b" transform="translate(176.149062 16.08375) scale(0.12 -0.12)">
     <defs>
      <path id="SegoeUI-Bold-31" d="M 4544 0 
L 3525 0 
L 1678 2816 
Q 1516 3063 1453 3188 
L 1441 3188 
Q 1466 2950 1466 2463 
L 1466 0 
L 513 0 
L 513 4481 
L 1600 4481 
L 3378 1753 
Q 3500 1569 3603 1388 
L 3616 1388 
Q 3591 1544 3591 2003 
L 3591 4481 
L 4544 4481 
L 4544 0 
z
" transform="scale(0.015625)"/>
      <path id="SegoeUI-Bold-36" d="M 306 172 
L 306 1172 
Q 578 944 897 830 
Q 1216 716 1541 716 
Q 1731 716 1873 750 
Q 2016 784 2111 845 
Q 2206 906 2253 989 
Q 2300 1072 2300 1169 
Q 2300 1300 2225 1403 
Q 2150 1506 2020 1593 
Q 1891 1681 1712 1762 
Q 1534 1844 1328 1928 
Q 803 2147 545 2462 
Q 288 2778 288 3225 
Q 288 3575 428 3826 
Q 569 4078 811 4240 
Q 1053 4403 1372 4479 
Q 1691 4556 2047 4556 
Q 2397 4556 2667 4514 
Q 2938 4472 3166 4384 
L 3166 3450 
Q 3053 3528 2920 3587 
Q 2788 3647 2647 3686 
Q 2506 3725 2367 3744 
Q 2228 3763 2103 3763 
Q 1931 3763 1790 3730 
Q 1650 3697 1553 3637 
Q 1456 3578 1403 3495 
Q 1350 3413 1350 3309 
Q 1350 3197 1409 3108 
Q 1469 3019 1578 2939 
Q 1688 2859 1844 2782 
Q 2000 2706 2197 2625 
Q 2466 2513 2680 2386 
Q 2894 2259 3047 2100 
Q 3200 1941 3281 1736 
Q 3363 1531 3363 1259 
Q 3363 884 3220 629 
Q 3078 375 2834 217 
Q 2591 59 2267 -9 
Q 1944 -78 1584 -78 
Q 1216 -78 883 -15 
Q 550 47 306 172 
z
" transform="scale(0.015625)"/>
      <path id="SegoeUI-Bold-2f" d="M 3181 0 
L 513 0 
L 513 4481 
L 1522 4481 
L 1522 819 
L 3181 819 
L 3181 0 
z
" transform="scale(0.015625)"/>
      <path id="SegoeUI-Bold-25" d="M 513 0 
L 513 4481 
L 2144 4481 
Q 2894 4481 3297 4206 
Q 3700 3931 3700 3431 
Q 3700 3069 3454 2797 
Q 3209 2525 2828 2419 
L 2828 2406 
Q 3306 2347 3592 2053 
Q 3878 1759 3878 1338 
Q 3878 722 3437 361 
Q 2997 0 2234 0 
L 513 0 
z
M 1522 3738 
L 1522 2675 
L 1966 2675 
Q 2278 2675 2458 2826 
Q 2638 2978 2638 3244 
Q 2638 3738 1900 3738 
L 1522 3738 
z
M 1522 1925 
L 1522 744 
L 2069 744 
Q 2419 744 2617 906 
Q 2816 1069 2816 1350 
Q 2816 1619 2620 1772 
Q 2425 1925 2075 1925 
L 1522 1925 
z
" transform="scale(0.015625)"/>
      <path id="SegoeUI-Bold-3" transform="scale(0.015625)"/>
      <path id="SegoeUI-Bold-59" d="M 3463 3200 
L 2272 0 
L 1147 0 
L 13 3200 
L 1069 3200 
L 1625 1228 
Q 1719 894 1734 659 
L 1747 659 
Q 1769 881 1863 1209 
L 2431 3200 
L 3463 3200 
z
" transform="scale(0.015625)"/>
      <path id="SegoeUI-Bold-14" d="M 2600 4581 
L 2600 0 
L 1616 0 
L 1616 3469 
Q 1534 3397 1423 3333 
Q 1313 3269 1188 3217 
Q 1063 3166 928 3130 
Q 794 3094 663 3078 
L 663 3909 
Q 1047 4022 1387 4197 
Q 1728 4372 2003 4581 
L 2600 4581 
z
" transform="scale(0.015625)"/>
      <path id="SegoeUI-Bold-11" d="M 856 -78 
Q 613 -78 450 72 
Q 288 222 288 441 
Q 288 666 455 809 
Q 622 953 872 953 
Q 1125 953 1286 808 
Q 1447 663 1447 441 
Q 1447 213 1283 67 
Q 1119 -78 856 -78 
z
" transform="scale(0.015625)"/>
      <path id="SegoeUI-Bold-13" d="M 1816 -78 
Q 216 -78 216 2169 
Q 216 3334 648 3945 
Q 1081 4556 1903 4556 
Q 3466 4556 3466 2272 
Q 3466 1134 3039 528 
Q 2613 -78 1816 -78 
z
M 1859 3803 
Q 1219 3803 1219 2194 
Q 1219 678 1847 678 
Q 2459 678 2459 2241 
Q 2459 3803 1859 3803 
z
" transform="scale(0.015625)"/>
      <path id="SegoeUI-Bold-b3" d="M 6400 1363 
L 0 1363 
L 0 2053 
L 6400 2053 
L 6400 1363 
z
" transform="scale(0.015625)"/>
      <path id="SegoeUI-Bold-27" d="M 513 0 
L 513 4481 
L 2100 4481 
Q 4488 4481 4488 2297 
Q 4488 1250 3836 625 
Q 3184 0 2100 0 
L 513 0 
z
M 1522 3659 
L 1522 819 
L 2022 819 
Q 2678 819 3051 1212 
Q 3425 1606 3425 2284 
Q 3425 2925 3054 3292 
Q 2684 3659 2016 3659 
L 1522 3659 
z
" transform="scale(0.015625)"/>
      <path id="SegoeUI-Bold-44" d="M 3078 0 
L 2144 0 
L 2144 459 
L 2131 459 
Q 1809 -78 1178 -78 
Q 713 -78 445 186 
Q 178 450 178 891 
Q 178 1822 1281 1966 
L 2150 2081 
Q 2150 2606 1581 2606 
Q 1009 2606 494 2266 
L 494 3009 
Q 700 3116 1058 3197 
Q 1416 3278 1709 3278 
Q 3078 3278 3078 1913 
L 3078 0 
z
M 2150 1300 
L 2150 1516 
L 1569 1441 
Q 1088 1378 1088 1006 
Q 1088 838 1205 730 
Q 1322 622 1522 622 
Q 1800 622 1975 814 
Q 2150 1006 2150 1300 
z
" transform="scale(0.015625)"/>
      <path id="SegoeUI-Bold-57" d="M 2350 38 
Q 2131 -78 1691 -78 
Q 647 -78 647 1006 
L 647 2472 
L 128 2472 
L 128 3200 
L 647 3200 
L 647 3891 
L 1631 4172 
L 1631 3200 
L 2350 3200 
L 2350 2472 
L 1631 2472 
L 1631 1178 
Q 1631 678 2028 678 
Q 2184 678 2350 769 
L 2350 38 
z
" transform="scale(0.015625)"/>
      <path id="SegoeUI-Bold-56" d="M 206 84 
L 206 884 
Q 450 738 692 666 
Q 934 594 1150 594 
Q 1413 594 1564 666 
Q 1716 738 1716 884 
Q 1716 978 1647 1040 
Q 1578 1103 1470 1150 
Q 1363 1197 1234 1234 
Q 1106 1272 988 1319 
Q 797 1391 651 1473 
Q 506 1556 407 1665 
Q 309 1775 257 1919 
Q 206 2063 206 2259 
Q 206 2528 323 2722 
Q 441 2916 636 3039 
Q 831 3163 1082 3220 
Q 1334 3278 1606 3278 
Q 1819 3278 2037 3245 
Q 2256 3213 2469 3150 
L 2469 2388 
Q 2281 2497 2067 2551 
Q 1853 2606 1647 2606 
Q 1550 2606 1464 2589 
Q 1378 2572 1312 2539 
Q 1247 2506 1209 2454 
Q 1172 2403 1172 2338 
Q 1172 2250 1228 2187 
Q 1284 2125 1375 2079 
Q 1466 2034 1577 1998 
Q 1688 1963 1797 1925 
Q 1994 1856 2153 1775 
Q 2313 1694 2427 1584 
Q 2541 1475 2602 1328 
Q 2663 1181 2663 978 
Q 2663 694 2539 492 
Q 2416 291 2211 164 
Q 2006 38 1739 -20 
Q 1472 -78 1184 -78 
Q 656 -78 206 84 
z
" transform="scale(0.015625)"/>
      <path id="SegoeUI-Bold-48" d="M 3291 1319 
L 1203 1319 
Q 1253 622 2081 622 
Q 2609 622 3009 872 
L 3009 159 
Q 2566 -78 1856 -78 
Q 1081 -78 653 351 
Q 225 781 225 1550 
Q 225 2347 687 2812 
Q 1150 3278 1825 3278 
Q 2525 3278 2908 2862 
Q 3291 2447 3291 1734 
L 3291 1319 
z
M 2375 1925 
Q 2375 2613 1819 2613 
Q 1581 2613 1407 2416 
Q 1234 2219 1197 1925 
L 2375 1925 
z
" transform="scale(0.015625)"/>
      <path id="SegoeUI-Bold-26" d="M 3725 159 
Q 3234 -78 2444 -78 
Q 1413 -78 822 528 
Q 231 1134 231 2144 
Q 231 3219 895 3887 
Q 1559 4556 2619 4556 
Q 3275 4556 3725 4391 
L 3725 3419 
Q 3275 3688 2700 3688 
Q 2069 3688 1681 3291 
Q 1294 2894 1294 2216 
Q 1294 1566 1659 1180 
Q 2025 794 2644 794 
Q 3234 794 3725 1081 
L 3725 159 
z
" transform="scale(0.015625)"/>
      <path id="SegoeUI-Bold-52" d="M 1941 -78 
Q 1141 -78 683 370 
Q 225 819 225 1588 
Q 225 2381 700 2829 
Q 1175 3278 1984 3278 
Q 2781 3278 3234 2829 
Q 3688 2381 3688 1644 
Q 3688 847 3220 384 
Q 2753 -78 1941 -78 
z
M 1966 2522 
Q 1616 2522 1422 2281 
Q 1228 2041 1228 1600 
Q 1228 678 1972 678 
Q 2681 678 2681 1625 
Q 2681 2522 1966 2522 
z
" transform="scale(0.015625)"/>
      <path id="SegoeUI-Bold-50" d="M 5497 0 
L 4513 0 
L 4513 1825 
Q 4513 2522 4000 2522 
Q 3756 2522 3603 2312 
Q 3450 2103 3450 1791 
L 3450 0 
L 2463 0 
L 2463 1844 
Q 2463 2522 1959 2522 
Q 1706 2522 1554 2322 
Q 1403 2122 1403 1778 
L 1403 0 
L 416 0 
L 416 3200 
L 1403 3200 
L 1403 2700 
L 1416 2700 
Q 1569 2956 1845 3117 
Q 2122 3278 2450 3278 
Q 3128 3278 3378 2681 
Q 3744 3278 4453 3278 
Q 5497 3278 5497 1991 
L 5497 0 
z
" transform="scale(0.015625)"/>
      <path id="SegoeUI-Bold-53" d="M 1416 372 
L 1403 372 
L 1403 -1472 
L 416 -1472 
L 416 3200 
L 1403 3200 
L 1403 2719 
L 1416 2719 
Q 1781 3278 2444 3278 
Q 3066 3278 3405 2851 
Q 3744 2425 3744 1691 
Q 3744 891 3348 406 
Q 2953 -78 2297 -78 
Q 1719 -78 1416 372 
z
M 1388 1684 
L 1388 1428 
Q 1388 1097 1563 887 
Q 1738 678 2022 678 
Q 2359 678 2545 939 
Q 2731 1200 2731 1678 
Q 2731 2522 2075 2522 
Q 1772 2522 1580 2292 
Q 1388 2063 1388 1684 
z
" transform="scale(0.015625)"/>
      <path id="SegoeUI-Bold-4c" d="M 916 3706 
Q 666 3706 506 3854 
Q 347 4003 347 4219 
Q 347 4441 506 4581 
Q 666 4722 916 4722 
Q 1169 4722 1326 4581 
Q 1484 4441 1484 4219 
Q 1484 3994 1326 3850 
Q 1169 3706 916 3706 
z
M 1403 0 
L 416 0 
L 416 3200 
L 1403 3200 
L 1403 0 
z
" transform="scale(0.015625)"/>
      <path id="SegoeUI-Bold-51" d="M 3506 0 
L 2522 0 
L 2522 1778 
Q 2522 2522 1991 2522 
Q 1734 2522 1568 2325 
Q 1403 2128 1403 1825 
L 1403 0 
L 416 0 
L 416 3200 
L 1403 3200 
L 1403 2694 
L 1416 2694 
Q 1769 3278 2444 3278 
Q 3506 3278 3506 1959 
L 3506 0 
z
" transform="scale(0.015625)"/>
      <path id="SegoeUI-Bold-45" d="M 1416 372 
L 1403 372 
L 1403 0 
L 416 0 
L 416 4738 
L 1403 4738 
L 1403 2719 
L 1416 2719 
Q 1781 3278 2456 3278 
Q 3075 3278 3409 2853 
Q 3744 2428 3744 1691 
Q 3744 891 3353 406 
Q 2963 -78 2309 -78 
Q 1719 -78 1416 372 
z
M 1388 1722 
L 1388 1394 
Q 1388 1084 1566 881 
Q 1744 678 2022 678 
Q 2359 678 2545 939 
Q 2731 1200 2731 1678 
Q 2731 2075 2561 2298 
Q 2391 2522 2075 2522 
Q 1778 2522 1583 2300 
Q 1388 2078 1388 1722 
z
" transform="scale(0.015625)"/>
      <path id="SegoeUI-Bold-5c" d="M 3463 3200 
L 2163 -256 
Q 1694 -1503 750 -1503 
Q 391 -1503 159 -1422 
L 159 -634 
Q 356 -750 588 -750 
Q 969 -750 1119 -391 
L 1288 6 
L -13 3200 
L 1081 3200 
L 1678 1253 
Q 1734 1072 1766 825 
L 1778 825 
Q 1806 1006 1881 1247 
L 2484 3200 
L 3463 3200 
z
" transform="scale(0.015625)"/>
      <path id="SegoeUI-Bold-58" d="M 3456 0 
L 2472 0 
L 2472 488 
L 2456 488 
Q 2091 -78 1478 -78 
Q 366 -78 366 1269 
L 366 3200 
L 1350 3200 
L 1350 1356 
Q 1350 678 1888 678 
Q 2153 678 2312 864 
Q 2472 1050 2472 1369 
L 2472 3200 
L 3456 3200 
L 3456 0 
z
" transform="scale(0.015625)"/>
      <path id="SegoeUI-Bold-55" d="M 2503 2309 
Q 2325 2406 2088 2406 
Q 1766 2406 1584 2170 
Q 1403 1934 1403 1528 
L 1403 0 
L 416 0 
L 416 3200 
L 1403 3200 
L 1403 2606 
L 1416 2606 
Q 1650 3256 2259 3256 
Q 2416 3256 2503 3219 
L 2503 2309 
z
" transform="scale(0.015625)"/>
      <path id="SegoeUI-Bold-46" d="M 2841 116 
Q 2506 -78 1875 -78 
Q 1138 -78 681 369 
Q 225 816 225 1522 
Q 225 2338 714 2808 
Q 1203 3278 2022 3278 
Q 2588 3278 2841 3128 
L 2841 2291 
Q 2531 2522 2150 2522 
Q 1725 2522 1476 2273 
Q 1228 2025 1228 1588 
Q 1228 1163 1465 920 
Q 1703 678 2119 678 
Q 2488 678 2841 909 
L 2841 116 
z
" transform="scale(0.015625)"/>
      <path id="SegoeUI-Bold-33" d="M 1522 1544 
L 1522 0 
L 513 0 
L 513 4481 
L 2094 4481 
Q 3788 4481 3788 3053 
Q 3788 2378 3302 1961 
Q 2816 1544 2003 1544 
L 1522 1544 
z
M 1522 3706 
L 1522 2309 
L 1919 2309 
Q 2725 2309 2725 3016 
Q 2725 3706 1919 3706 
L 1522 3706 
z
" transform="scale(0.015625)"/>
      <path id="SegoeUI-Bold-4b" d="M 3488 0 
L 2503 0 
L 2503 1819 
Q 2503 2522 1991 2522 
Q 1728 2522 1565 2325 
Q 1403 2128 1403 1825 
L 1403 0 
L 416 0 
L 416 4738 
L 1403 4738 
L 1403 2725 
L 1416 2725 
Q 1778 3278 2400 3278 
Q 3488 3278 3488 1966 
L 3488 0 
z
" transform="scale(0.015625)"/>
     </defs>
     <use xlink:href="#SegoeUI-Bold-31"/>
     <use xlink:href="#SegoeUI-Bold-36" transform="translate(79 0)"/>
     <use xlink:href="#SegoeUI-Bold-2f" transform="translate(135.0625 0)"/>
     <use xlink:href="#SegoeUI-Bold-25" transform="translate(186.1875 0)"/>
     <use xlink:href="#SegoeUI-Bold-3" transform="translate(250.296875 0)"/>
     <use xlink:href="#SegoeUI-Bold-59" transform="translate(277.890625 0)"/>
     <use xlink:href="#SegoeUI-Bold-14" transform="translate(332.09375 0)"/>
     <use xlink:href="#SegoeUI-Bold-11" transform="translate(389.609375 0)"/>
     <use xlink:href="#SegoeUI-Bold-13" transform="translate(416.703125 0)"/>
     <use xlink:href="#SegoeUI-Bold-3" transform="translate(474.21875 0)"/>
     <use xlink:href="#SegoeUI-Bold-b3" transform="translate(501.8125 0)"/>
     <use xlink:href="#SegoeUI-Bold-3" transform="translate(601.8125 0)"/>
     <use xlink:href="#SegoeUI-Bold-27" transform="translate(629.40625 0)"/>
     <use xlink:href="#SegoeUI-Bold-44" transform="translate(703.140625 0)"/>
     <use xlink:href="#SegoeUI-Bold-57" transform="translate(756.953125 0)"/>
     <use xlink:href="#SegoeUI-Bold-44" transform="translate(795.875 0)"/>
     <use xlink:href="#SegoeUI-Bold-56" transform="translate(849.6875 0)"/>
     <use xlink:href="#SegoeUI-Bold-48" transform="translate(893.6875 0)"/>
     <use xlink:href="#SegoeUI-Bold-57" transform="translate(947.796875 0)"/>
     <use xlink:href="#SegoeUI-Bold-3" transform="translate(986.71875 0)"/>
     <use xlink:href="#SegoeUI-Bold-26" transform="translate(1014.3125 0)"/>
     <use xlink:href="#SegoeUI-Bold-52" transform="translate(1076.71875 0)"/>
     <use xlink:href="#SegoeUI-Bold-50" transform="translate(1137.859375 0)"/>
     <use xlink:href="#SegoeUI-Bold-53" transform="translate(1229.46875 0)"/>
     <use xlink:href="#SegoeUI-Bold-52" transform="translate(1291.484375 0)"/>
     <use xlink:href="#SegoeUI-Bold-56" transform="translate(1352.625 0)"/>
     <use xlink:href="#SegoeUI-Bold-4c" transform="translate(1396.625 0)"/>
     <use xlink:href="#SegoeUI-Bold-57" transform="translate(1425.046875 0)"/>
     <use xlink:href="#SegoeUI-Bold-4c" transform="translate(1463.96875 0)"/>
     <use xlink:href="#SegoeUI-Bold-52" transform="translate(1492.390625 0)"/>
     <use xlink:href="#SegoeUI-Bold-51" transform="translate(1553.53125 0)"/>
     <use xlink:href="#SegoeUI-Bold-3" transform="translate(1614.03125 0)"/>
     <use xlink:href="#SegoeUI-Bold-45" transform="translate(1641.625 0)"/>
     <use xlink:href="#SegoeUI-Bold-5c" transform="translate(1703.640625 0)"/>
     <use xlink:href="#SegoeUI-Bold-3" transform="translate(1757.453125 0)"/>
     <use xlink:href="#SegoeUI-Bold-36" transform="translate(1785.046875 0)"/>
     <use xlink:href="#SegoeUI-Bold-52" transform="translate(1841.109375 0)"/>
     <use xlink:href="#SegoeUI-Bold-58" transform="translate(1902.25 0)"/>
     <use xlink:href="#SegoeUI-Bold-55" transform="translate(1962.75 0)"/>
     <use xlink:href="#SegoeUI-Bold-46" transform="translate(2002.15625 0)"/>
     <use xlink:href="#SegoeUI-Bold-48" transform="translate(2050.15625 0)"/>
     <use xlink:href="#SegoeUI-Bold-3" transform="translate(2104.265625 0)"/>
     <use xlink:href="#SegoeUI-Bold-33" transform="translate(2131.859375 0)"/>
     <use xlink:href="#SegoeUI-Bold-4b" transform="translate(2193.28125 0)"/>
     <use xlink:href="#SegoeUI-Bold-44" transform="translate(2253.484375 0)"/>
     <use xlink:href="#SegoeUI-Bold-56" transform="translate(2307.296875 0)"/>
     <use xlink:href="#SegoeUI-Bold-48" transform="translate(2351.296875 0)"/>
    </g>
   </g>
   <g id="legend_1">
    <g id="patch_22">
     <path d="M 165.289531 420.017993 
L 183.289531 420.017993 
L 183.289531 413.717993 
L 165.289531 413.717993 
z
" style="fill: #2a78d6"/>
    </g>
    <g id="text_20">
     <!-- Phase-1 (in-repo sources) -->
     <g style="fill: #0b0b0b" transform="translate(190.489531 420.017993) scale(0.09 -0.09)">
      <defs>
       <path id="SegoeUI-33" d="M 1113 1694 
L 1113 0 
L 588 0 
L 588 4481 
L 1819 4481 
Q 2538 4481 2933 4131 
Q 3328 3781 3328 3144 
Q 3328 2506 2889 2100 
Q 2450 1694 1703 1694 
L 1113 1694 
z
M 1113 4006 
L 1113 2169 
L 1663 2169 
Q 2206 2169 2492 2417 
Q 2778 2666 2778 3119 
Q 2778 4006 1728 4006 
L 1113 4006 
z
" transform="scale(0.015625)"/>
       <path id="SegoeUI-10" d="M 2156 1581 
L 450 1581 
L 450 1984 
L 2156 1984 
L 2156 1581 
z
" transform="scale(0.015625)"/>
       <path id="SegoeUI-b" d="M 1863 -1019 
L 1406 -1019 
Q 438 88 438 1709 
Q 438 3338 1406 4481 
L 1869 4481 
Q 888 3294 888 1716 
Q 888 150 1863 -1019 
z
" transform="scale(0.015625)"/>
       <path id="SegoeUI-c" d="M 531 -1019 
L 75 -1019 
Q 1050 150 1050 1716 
Q 1050 3294 69 4481 
L 531 4481 
Q 1506 3338 1506 1709 
Q 1506 88 531 -1019 
z
" transform="scale(0.015625)"/>
      </defs>
      <use xlink:href="#SegoeUI-33"/>
      <use xlink:href="#SegoeUI-4b" transform="translate(56 0)"/>
      <use xlink:href="#SegoeUI-44" transform="translate(112.59375 0)"/>
      <use xlink:href="#SegoeUI-56" transform="translate(163.46875 0)"/>
      <use xlink:href="#SegoeUI-48" transform="translate(205.90625 0)"/>
      <use xlink:href="#SegoeUI-10" transform="translate(258.203125 0)"/>
      <use xlink:href="#SegoeUI-14" transform="translate(298.1875 0)"/>
      <use xlink:href="#SegoeUI-3" transform="translate(352.09375 0)"/>
      <use xlink:href="#SegoeUI-b" transform="translate(379.484375 0)"/>
      <use xlink:href="#SegoeUI-4c" transform="translate(409.65625 0)"/>
      <use xlink:href="#SegoeUI-51" transform="translate(433.875 0)"/>
      <use xlink:href="#SegoeUI-10" transform="translate(490.46875 0)"/>
      <use xlink:href="#SegoeUI-55" transform="translate(530.453125 0)"/>
      <use xlink:href="#SegoeUI-48" transform="translate(565.21875 0)"/>
      <use xlink:href="#SegoeUI-53" transform="translate(617.515625 0)"/>
      <use xlink:href="#SegoeUI-52" transform="translate(676.3125 0)"/>
      <use xlink:href="#SegoeUI-3" transform="translate(734.90625 0)"/>
      <use xlink:href="#SegoeUI-56" transform="translate(762.296875 0)"/>
      <use xlink:href="#SegoeUI-52" transform="translate(804.734375 0)"/>
      <use xlink:href="#SegoeUI-58" transform="translate(863.328125 0)"/>
      <use xlink:href="#SegoeUI-55" transform="translate(919.921875 0)"/>
      <use xlink:href="#SegoeUI-46" transform="translate(954.6875 0)"/>
      <use xlink:href="#SegoeUI-48" transform="translate(1000.875 0)"/>
      <use xlink:href="#SegoeUI-56" transform="translate(1053.171875 0)"/>
      <use xlink:href="#SegoeUI-c" transform="translate(1095.609375 0)"/>
     </g>
    </g>
    <g id="patch_23">
     <path d="M 309.809844 420.017993 
L 327.809844 420.017993 
L 327.809844 413.717993 
L 309.809844 413.717993 
z
" style="fill: #eb6834"/>
    </g>
    <g id="text_21">
     <!-- Corpus-expansion (external corpus) -->
     <g style="fill: #0b0b0b" transform="translate(335.009844 420.017993) scale(0.09 -0.09)">
      <defs>
       <path id="SegoeUI-26" d="M 3638 188 
Q 3141 -75 2400 -75 
Q 1444 -75 869 540 
Q 294 1156 294 2156 
Q 294 3231 941 3893 
Q 1588 4556 2581 4556 
Q 3219 4556 3638 4372 
L 3638 3813 
Q 3156 4081 2575 4081 
Q 1803 4081 1323 3565 
Q 844 3050 844 2188 
Q 844 1369 1292 883 
Q 1741 397 2469 397 
Q 3144 397 3638 697 
L 3638 188 
z
" transform="scale(0.015625)"/>
       <path id="SegoeUI-5b" d="M 2856 3200 
L 1781 1581 
L 2838 0 
L 2241 0 
L 1613 1038 
Q 1553 1134 1472 1281 
L 1459 1281 
Q 1444 1253 1313 1038 
L 672 0 
L 81 0 
L 1172 1569 
L 128 3200 
L 725 3200 
L 1344 2106 
Q 1413 1984 1478 1856 
L 1491 1856 
L 2291 3200 
L 2856 3200 
z
" transform="scale(0.015625)"/>
      </defs>
      <use xlink:href="#SegoeUI-26"/>
      <use xlink:href="#SegoeUI-52" transform="translate(61.921875 0)"/>
      <use xlink:href="#SegoeUI-55" transform="translate(120.515625 0)"/>
      <use xlink:href="#SegoeUI-53" transform="translate(155.28125 0)"/>
      <use xlink:href="#SegoeUI-58" transform="translate(214.078125 0)"/>
      <use xlink:href="#SegoeUI-56" transform="translate(270.671875 0)"/>
      <use xlink:href="#SegoeUI-10" transform="translate(313.109375 0)"/>
      <use xlink:href="#SegoeUI-48" transform="translate(353.09375 0)"/>
      <use xlink:href="#SegoeUI-5b" transform="translate(405.390625 0)"/>
      <use xlink:href="#SegoeUI-53" transform="translate(451.296875 0)"/>
      <use xlink:href="#SegoeUI-44" transform="translate(510.09375 0)"/>
      <use xlink:href="#SegoeUI-51" transform="translate(560.96875 0)"/>
      <use xlink:href="#SegoeUI-56" transform="translate(617.5625 0)"/>
      <use xlink:href="#SegoeUI-4c" transform="translate(660 0)"/>
      <use xlink:href="#SegoeUI-52" transform="translate(684.21875 0)"/>
      <use xlink:href="#SegoeUI-51" transform="translate(742.8125 0)"/>
      <use xlink:href="#SegoeUI-3" transform="translate(799.40625 0)"/>
      <use xlink:href="#SegoeUI-b" transform="translate(826.796875 0)"/>
      <use xlink:href="#SegoeUI-48" transform="translate(856.96875 0)"/>
      <use xlink:href="#SegoeUI-5b" transform="translate(909.265625 0)"/>
      <use xlink:href="#SegoeUI-57" transform="translate(955.171875 0)"/>
      <use xlink:href="#SegoeUI-48" transform="translate(989.0625 0)"/>
      <use xlink:href="#SegoeUI-55" transform="translate(1041.359375 0)"/>
      <use xlink:href="#SegoeUI-51" transform="translate(1076.125 0)"/>
      <use xlink:href="#SegoeUI-44" transform="translate(1132.71875 0)"/>
      <use xlink:href="#SegoeUI-4f" transform="translate(1183.59375 0)"/>
      <use xlink:href="#SegoeUI-3" transform="translate(1207.8125 0)"/>
      <use xlink:href="#SegoeUI-46" transform="translate(1235.203125 0)"/>
      <use xlink:href="#SegoeUI-52" transform="translate(1281.390625 0)"/>
      <use xlink:href="#SegoeUI-55" transform="translate(1339.984375 0)"/>
      <use xlink:href="#SegoeUI-53" transform="translate(1374.75 0)"/>
      <use xlink:href="#SegoeUI-58" transform="translate(1433.546875 0)"/>
      <use xlink:href="#SegoeUI-56" transform="translate(1490.140625 0)"/>
      <use xlink:href="#SegoeUI-c" transform="translate(1532.578125 0)"/>
     </g>
    </g>
   </g>
  </g>
 </g>
 <defs>
  <clipPath id="pb41d4d799e">
   <rect x="97.273438" y="28.08375" width="446.4" height="339.552"/>
  </clipPath>
 </defs>
</svg>
